<svg width="1200" height="750" viewBox="0 0 1200 750" xmlns="http://www.w3.org/2000/svg">
  <rect width="1200" height="750" rx="36" fill="#0F1714"/>
  <rect x="76" y="84" width="1048" height="582" rx="28" fill="#17231F" stroke="#2E4B3E" stroke-width="2"/>
  <rect x="122" y="140" width="300" height="180" rx="24" fill="#1C2F28"/>
  <rect x="470" y="140" width="606" height="110" rx="22" fill="#233C33"/>
  <rect x="470" y="280" width="606" height="300" rx="22" fill="#1A2A24"/>
  <circle cx="180" cy="220" r="56" fill="#3DBE8B" opacity="0.9"/>
  <rect x="150" y="320" width="240" height="24" rx="12" fill="#4F6B5A"/>
  <rect x="150" y="360" width="180" height="18" rx="9" fill="#486552"/>
  <rect x="500" y="170" width="180" height="18" rx="9" fill="#6EE3B2"/>
  <rect x="500" y="205" width="260" height="16" rx="8" fill="#4C6F5E"/>
  <rect x="500" y="324" width="210" height="88" rx="18" fill="#2D493D"/>
  <rect x="742" y="324" width="210" height="88" rx="18" fill="#1D342D"/>
  <rect x="500" y="438" width="452" height="88" rx="18" fill="#233C33"/>
  <path d="M830 200c36 0 66 30 66 66s-30 66-66 66-66-30-66-66 30-66 66-66z" fill="none" stroke="#3DBE8B" stroke-width="12"/>
  <path d="M830 200v132" stroke="#3DBE8B" stroke-width="10" stroke-linecap="round"/>
  <path d="M764 266h132" stroke="#3DBE8B" stroke-width="10" stroke-linecap="round"/>
</svg>