<svg width="1200" height="750" viewBox="0 0 1200 750" xmlns="http://www.w3.org/2000/svg">
  <rect width="1200" height="750" rx="36" fill="#11171B"/>
  <rect x="86" y="96" width="1028" height="558" rx="28" fill="#162028" stroke="#334A57" stroke-width="2"/>
  <rect x="132" y="144" width="300" height="104" rx="22" fill="#23323C"/>
  <rect x="132" y="280" width="300" height="286" rx="22" fill="#1E2A33"/>
  <rect x="470" y="144" width="604" height="422" rx="22" fill="#1A232A"/>
  <rect x="154" y="174" width="128" height="16" rx="8" fill="#7FD8C6"/>
  <rect x="154" y="206" width="190" height="14" rx="7" fill="#486270"/>
  <rect x="154" y="320" width="248" height="16" rx="8" fill="#7FD8C6"/>
  <rect x="154" y="356" width="210" height="12" rx="6" fill="#5F7681"/>
  <rect x="154" y="386" width="228" height="12" rx="6" fill="#5F7681"/>
  <rect x="154" y="500" width="84" height="44" rx="10" fill="#3DBE8B"/>
  <rect x="254" y="500" width="84" height="44" rx="10" fill="#4BB8E5"/>
  <rect x="354" y="500" width="84" height="44" rx="10" fill="#D89D4A"/>
  <rect x="512" y="190" width="36" height="250" rx="10" fill="#3DBE8B"/>
  <rect x="576" y="238" width="36" height="202" rx="10" fill="#4BB8E5"/>
  <rect x="642" y="212" width="36" height="228" rx="10" fill="#90D7C3"/>
  <rect x="708" y="262" width="36" height="178" rx="10" fill="#D89D4A"/>
  <rect x="774" y="196" width="36" height="244" rx="10" fill="#6D8C98"/>
  <rect x="840" y="236" width="36" height="204" rx="10" fill="#4ABFA6"/>
  <path d="M500 516h510" stroke="#35525D" stroke-width="12" stroke-linecap="round"/>
  <circle cx="930" cy="232" r="86" fill="none" stroke="#3DBE8B" stroke-width="16" stroke-dasharray="10 16"/>
</svg>